<?xml version="1.0" encoding="utf-8"?>
<!-- Generator: Adobe Illustrator 26.0.3, SVG Export Plug-In . SVG Version: 6.00 Build 0)  -->
<svg version="1.1" xmlns="http://www.w3.org/2000/svg" xmlns:xlink="http://www.w3.org/1999/xlink" x="0px" y="0px"
	 viewBox="0 0 1200 1200" style="enable-background:new 0 0 1200 1200;" xml:space="preserve">
<style type="text/css">
	
		.st0{clip-path:url(#SVGID_00000075855037744399604050000013883476202724845959_);fill:url(#SVGID_00000000184280985491869210000005729529280452787883_);}
	.st1{filter:url(#Adobe_OpacityMaskFilter);}
	
		.st2{mask:url(#SVGID_00000044894744558989486600000014206366142506375589_);fill:url(#SVGID_00000170973826769513600710000009103615723090283402_);}
	.st3{fill:none;stroke:#FFFFFF;stroke-width:5;stroke-linecap:round;stroke-linejoin:round;stroke-miterlimit:10;}
	.st4{fill:none;stroke:#FFFFFF;stroke-width:6;stroke-miterlimit:10;}
	.st5{fill:url(#SVGID_00000026880899159707913840000005475242879412874882_);}
	.st6{fill:url(#SVGID_00000007423055300536345890000007676935881201597868_);}
	.st7{fill:url(#SVGID_00000124155594276781150800000003036431738890516922_);}
	.st8{fill:url(#SVGID_00000080903127683121161500000000823058094001510799_);}
	.st9{fill:url(#SVGID_00000142136781300627944790000002416483673337802140_);}
	.st10{fill:url(#SVGID_00000080929328080584960030000014497543120859478717_);}
	.st11{fill:url(#SVGID_00000094579665453053586020000015726608870609344415_);}
	.st12{fill:#C1DBFF;}
	.st13{font-family:'Muli-Light';}
	.st14{font-size:110px;}
</style>
<g id="background">
	<g>
		<defs>
			<rect id="SVGID_1_" transform="matrix(-1 -1.224647e-16 1.224647e-16 -1 1200 1200)" width="1200" height="1200"/>
		</defs>
		<clipPath id="SVGID_00000158016248189526958280000016415348599615266187_">
			<use xlink:href="#SVGID_1_"  style="overflow:visible;"/>
		</clipPath>
		<g style="clip-path:url(#SVGID_00000158016248189526958280000016415348599615266187_);">
			
				<image style="overflow:visible;" width="5186" height="5149" xlink:href="8116FADF.png"  transform="matrix(0.24 0 0 0.24 -17.52 -8.8599)">
			</image>
		</g>
	</g>
</g>
<g id="graphic_element">
	<g>
		<defs>
			
				<rect id="SVGID_00000036215045394366256820000017197675207414923153_" y="828" transform="matrix(-1 -1.224647e-16 1.224647e-16 -1 1200 1928)" width="1200" height="272"/>
		</defs>
		<clipPath id="SVGID_00000030472516344098994820000005804222675030932100_">
			<use xlink:href="#SVGID_00000036215045394366256820000017197675207414923153_"  style="overflow:visible;"/>
		</clipPath>
		
			<radialGradient id="SVGID_00000062876068688049059380000006911314549067305103_" cx="1467.5564" cy="-871.4082" r="76.5184" gradientTransform="matrix(-9.9971 7.700000e-03 -9.000000e-04 -1.1778 15218.5869 -98.665)" gradientUnits="userSpaceOnUse">
			<stop  offset="0" style="stop-color:#C799C7"/>
			<stop  offset="0.604" style="stop-color:#4B3B4B"/>
			<stop  offset="0.9944" style="stop-color:#000100"/>
		</radialGradient>
		
			<ellipse style="clip-path:url(#SVGID_00000030472516344098994820000005804222675030932100_);fill:url(#SVGID_00000062876068688049059380000006911314549067305103_);" cx="562.6" cy="949.7" rx="803.5" ry="163"/>
	</g>
	<g>
		<defs>
			<filter id="Adobe_OpacityMaskFilter" filterUnits="userSpaceOnUse" x="202.4" y="117.1" width="795.1" height="810.8">
				<feColorMatrix  type="matrix" values="1 0 0 0 0  0 1 0 0 0  0 0 1 0 0  0 0 0 1 0"/>
			</filter>
		</defs>
		
			<mask maskUnits="userSpaceOnUse" x="202.4" y="117.1" width="795.1" height="810.8" id="SVGID_00000121976270324405943320000005410423309032716197_">
			<g class="st1">
				
					<image style="overflow:visible;" width="828.3" height="827.4" xlink:href="11C03AF9.png"  transform="matrix(1 0 0 1 185.8596 100.5904)"/>
			</g>
		</mask>
		
			<linearGradient id="SVGID_00000067935921193976195270000011552198566586184350_" gradientUnits="userSpaceOnUse" x1="99.277" y1="102.1032" x2="1025.7441" y2="880.0333">
			<stop  offset="0" style="stop-color:#FF0FE0"/>
			<stop  offset="0.1947" style="stop-color:#DE39E3"/>
			<stop  offset="0.6299" style="stop-color:#8AA2E9"/>
			<stop  offset="0.9973" style="stop-color:#40FFEF"/>
		</linearGradient>
		
			<rect x="202.4" y="117.1" style="mask:url(#SVGID_00000121976270324405943320000005410423309032716197_);fill:url(#SVGID_00000067935921193976195270000011552198566586184350_);" width="795.1" height="810.8"/>
		<g>
			<path class="st3" d="M640.7,659L617.6,487c11.5-6.2,19.2-18.4,19.2-32.3c0-20.8-17.3-37.6-38.3-36.8c-19,0.8-34.4,16.1-35.2,35.1
				c-0.6,14.7,7.3,27.5,19.2,34L559.3,659H640.7z"/>
			<path class="st4" d="M620.7,155.7c0,0,29.6,43.5,90.2,79.8c36.8,22,94.1,43,183.2,35.6c6,43.2-11.3,372.2-143.5,496.8
				c-54.9,55.9-115,89.6-164.3,110.4c0,0-106.6-59.3-158.8-117.7C301.3,629.9,299.7,300.5,307.7,257.6
				c88.6,11.6,146.9-6.6,184.6-26.9c62.2-33.3,93.9-75.4,93.9-75.4L620.7,155.7z"/>
		</g>
	</g>
	<g>
		<g>
			
				<radialGradient id="SVGID_00000047028232956859819320000001714857046077657241_" cx="3475.2705" cy="-802.0834" r="56.258" gradientTransform="matrix(0.8934 0.4492 -0.4366 0.8684 -2610.9761 -51.1599)" gradientUnits="userSpaceOnUse">
				<stop  offset="0" style="stop-color:#FFFFFF"/>
				<stop  offset="1" style="stop-color:#000000"/>
			</radialGradient>
			<path style="fill:url(#SVGID_00000047028232956859819320000001714857046077657241_);" d="M894.3,838.7
				c-13.6,27-47.1,37.5-74.8,23.6c-27.8-14-39.3-47.1-25.7-74.1c13.6-27,47.1-37.5,74.8-23.6C896.3,778.5,907.8,811.7,894.3,838.7z"
				/>
			
				<radialGradient id="SVGID_00000094587397515622396320000005336519868034194832_" cx="3593.7334" cy="-898.7839" r="40.4415" gradientTransform="matrix(0.8934 0.4492 -0.4366 0.8684 -2610.9761 -51.1599)" gradientUnits="userSpaceOnUse">
				<stop  offset="0" style="stop-color:#FFFFFF"/>
				<stop  offset="1" style="stop-color:#000000"/>
			</radialGradient>
			<path style="fill:url(#SVGID_00000094587397515622396320000005336519868034194832_);" d="M1028.2,800.8
				c-9.8,19.4-33.8,27-53.8,17c-20-10-28.2-33.9-18.5-53.3c9.8-19.4,33.8-27,53.8-17C1029.7,757.6,1038,781.4,1028.2,800.8z"/>
			
				<radialGradient id="SVGID_00000023969924637800396770000008271652494636236207_" cx="3514.4675" cy="-1086.4393" r="26.5471" gradientTransform="matrix(0.8934 0.4492 -0.4366 0.8684 -2610.9761 -51.1599)" gradientUnits="userSpaceOnUse">
				<stop  offset="0" style="stop-color:#FFFFFF"/>
				<stop  offset="1" style="stop-color:#000000"/>
			</radialGradient>
			<path style="fill:url(#SVGID_00000023969924637800396770000008271652494636236207_);" d="M1026.9,596
				c-6.4,12.7-22.2,17.7-35.3,11.1c-13.1-6.6-18.5-22.2-12.1-35c6.4-12.7,22.2-17.7,35.3-11.1C1027.9,567.6,1033.3,583.3,1026.9,596
				z"/>
			
				<radialGradient id="SVGID_00000023273388572619523950000004119951481494394002_" cx="3556.395" cy="-1250.2954" r="13.2736" gradientTransform="matrix(0.8934 0.4492 -0.4366 0.8684 -2610.9761 -51.1599)" gradientUnits="userSpaceOnUse">
				<stop  offset="0" style="stop-color:#FFFFFF"/>
				<stop  offset="1" style="stop-color:#000000"/>
			</radialGradient>
			<path style="fill:url(#SVGID_00000023273388572619523950000004119951481494394002_);" d="M1124,466.6c-3.2,6.4-11.1,8.9-17.7,5.6
				c-6.5-3.3-9.3-11.1-6.1-17.5c3.2-6.4,11.1-8.9,17.7-5.6C1124.5,452.4,1127.2,460.2,1124,466.6z"/>
		</g>
		<g>
			
				<radialGradient id="SVGID_00000051368286225427891870000018037223352431699596_" cx="-81.1948" cy="2707.5698" r="78.8142" gradientTransform="matrix(-0.6387 0.3824 0.4037 0.6743 -822.9653 -1307.9635)" gradientUnits="userSpaceOnUse">
				<stop  offset="0" style="stop-color:#FFFFFF"/>
				<stop  offset="1" style="stop-color:#000000"/>
			</radialGradient>
			<path style="fill:url(#SVGID_00000051368286225427891870000018037223352431699596_);" d="M271.6,516.8
				c17.6,29.4,54.4,39.7,82.2,23c27.8-16.6,36.1-53.9,18.5-83.3c-17.6-29.4-54.4-39.7-82.2-23C262.3,450.2,254,487.5,271.6,516.8z"
				/>
			
				<radialGradient id="SVGID_00000132805731435433466840000006150622291782009780_" cx="84.7532" cy="2572.0913" r="56.6563" gradientTransform="matrix(-0.6387 0.3824 0.4037 0.6743 -822.9653 -1307.9635)" gradientUnits="userSpaceOnUse">
				<stop  offset="0" style="stop-color:#FFFFFF"/>
				<stop  offset="1" style="stop-color:#000000"/>
			</radialGradient>
			<path style="fill:url(#SVGID_00000132805731435433466840000006150622291782009780_);" d="M125.1,480.5
				c12.6,21.1,39.1,28.5,59.1,16.5c20-12,25.9-38.8,13.3-59.9c-12.6-21.1-39.1-28.5-59.1-16.5C118.4,432.6,112.4,459.4,125.1,480.5z
				"/>
			
				<radialGradient id="SVGID_00000025418766587089570630000014186297976673322166_" cx="-26.2858" cy="2309.177" r="37.191" gradientTransform="matrix(-0.6387 0.3824 0.4037 0.6743 -822.9653 -1307.9635)" gradientUnits="userSpaceOnUse">
				<stop  offset="0" style="stop-color:#FFFFFF"/>
				<stop  offset="1" style="stop-color:#000000"/>
			</radialGradient>
			<path style="fill:url(#SVGID_00000025418766587089570630000014186297976673322166_);" d="M102.3,253.3
				c8.3,13.9,25.6,18.7,38.8,10.9c13.1-7.9,17-25.4,8.7-39.3c-8.3-13.9-25.6-18.7-38.8-10.9C97.9,221.8,94,239.4,102.3,253.3z"/>
		</g>
	</g>
</g>
<g id="text">
	<g>
		<text transform="matrix(1 0 0 1 176.4309 1026.2122)" class="st12 st13 st14">AEGIS PROTECTOR</text>
	</g>
</g>
</svg>
